<svg xmlns="http://www.w3.org/2000/svg" width="1942" height="540" viewBox="0 0 1942 540">
<g>
<path d="M 1821.78 391.42 C1814.40,393.30 1799.16,394.10 1791.47,393.02 C1768.27,389.76 1747.74,374.32 1736.25,351.50 C1731.49,342.06 1729.42,335.74 1726.75,322.60 C1724.77,312.81 1724.50,308.49 1724.50,286.00 C1724.50,263.33 1724.76,259.23 1726.81,249.00 C1731.24,227.01 1738.81,211.94 1751.92,199.00 C1767.09,184.04 1780.70,178.72 1804.00,178.66 C1819.38,178.62 1825.94,179.98 1838.00,185.70 C1844.01,188.55 1847.36,191.13 1854.86,198.68 C1860.01,203.87 1864.34,207.97 1864.47,207.80 C1864.61,207.64 1863.90,201.43 1862.89,194.00 C1861.38,182.86 1861.06,173.55 1861.03,140.75 L 1861.00 101.00 L 1918.01 101.00 L 1917.75 245.25 L 1917.50 389.50 L 1896.63 389.77 C1883.68,389.94 1875.29,389.66 1874.54,389.03 C1873.87,388.48 1871.12,382.40 1868.41,375.52 C1863.17,362.16 1861.76,360.75 1858.76,365.83 C1857.84,367.39 1853.74,371.84 1849.66,375.72 C1841.62,383.35 1831.82,388.87 1821.78,391.42 ZM 995.63 391.07 C984.97,393.26 966.12,394.19 956.58,393.00 C913.60,387.62 884.84,362.11 873.21,319.07 C870.78,310.07 870.62,308.07 870.56,285.50 C870.50,262.29 870.59,261.14 873.34,250.50 C884.97,205.41 914.94,181.53 963.88,178.37 C975.21,177.64 991.76,179.24 1002.12,182.07 C1012.47,184.90 1028.35,192.92 1035.78,199.08 C1043.19,205.22 1052.49,216.48 1057.39,225.25 C1065.57,239.86 1071.00,263.85 1071.00,285.31 C1071.00,342.74 1043.58,381.21 995.63,391.07 ZM 753.00 392.94 C723.87,395.60 693.22,391.03 668.30,380.33 L 660.00 376.76 L 660.00 350.38 C660.00,334.46 660.38,324.00 660.95,324.00 C661.47,324.00 667.65,326.30 674.70,329.12 C691.68,335.90 708.67,341.49 718.50,343.52 C735.68,347.06 754.77,346.40 764.94,341.91 C782.49,334.17 786.41,310.95 772.37,297.90 C765.40,291.42 761.67,289.19 734.42,275.23 C719.62,267.65 705.03,259.79 702.00,257.78 C681.71,244.29 669.64,228.26 665.40,209.19 C662.88,197.87 663.85,176.23 667.36,165.42 C670.22,156.61 675.55,147.62 682.23,140.36 C705.54,115.00 754.09,107.23 803.00,121.02 C816.99,124.97 836.00,132.07 836.00,133.36 C836.00,133.96 818.15,177.19 817.72,177.61 C817.53,177.80 813.35,176.36 808.44,174.41 C794.01,168.70 776.95,164.16 764.98,162.86 C740.95,160.26 725.87,166.60 721.56,181.12 C718.21,192.41 720.07,199.23 728.92,208.07 C735.00,214.15 737.50,215.65 762.00,227.98 C800.99,247.60 813.51,255.98 823.47,269.12 C833.96,282.98 837.46,295.64 836.77,317.29 C836.39,329.16 835.88,332.82 833.67,339.50 C823.53,370.23 795.03,389.11 753.00,392.94 ZM 1213.01 390.95 C1197.02,394.75 1178.24,394.38 1163.68,389.98 C1140.70,383.05 1126.54,368.53 1119.77,344.97 C1117.66,337.67 1117.61,335.76 1117.26,259.75 L 1116.91 182.00 L 1172.86 182.00 L 1173.27 249.25 C1173.69,320.12 1173.72,320.56 1178.37,331.21 C1180.76,336.68 1185.65,341.77 1191.41,344.81 C1196.12,347.30 1197.41,347.50 1208.52,347.50 C1220.10,347.50 1220.79,347.38 1227.23,344.21 C1238.63,338.59 1245.24,328.55 1249.22,310.81 C1251.17,302.08 1251.33,297.78 1251.73,241.75 L 1252.16 182.00 L 1308.00 182.00 L 1308.00 390.04 L 1286.33 389.77 L 1264.65 389.50 L 1261.04 376.51 C1257.01,362.03 1255.68,360.54 1252.05,366.43 C1245.79,376.54 1228.84,387.19 1213.01,390.95 ZM 1641.85 392.93 C1596.91,397.14 1563.73,384.85 1545.18,357.11 C1534.41,341.00 1529.39,322.46 1528.34,294.91 C1526.70,251.84 1535.83,223.54 1558.12,202.57 C1569.70,191.67 1584.13,184.77 1604.50,180.37 C1616.80,177.71 1647.16,177.96 1660.50,180.81 C1670.97,183.06 1682.57,186.60 1690.30,189.91 L 1694.86 191.87 L 1689.34 206.19 C1686.30,214.06 1682.54,223.88 1680.99,228.00 C1679.19,232.78 1677.68,235.39 1676.83,235.19 C1676.10,235.03 1671.45,233.39 1666.50,231.56 C1652.17,226.25 1643.02,224.50 1630.00,224.58 C1620.44,224.63 1617.50,225.03 1612.55,226.97 C1600.56,231.65 1592.36,243.01 1588.34,260.50 C1585.74,271.79 1585.73,300.23 1588.32,311.25 C1592.07,327.24 1599.97,338.27 1611.50,343.59 C1628.71,351.54 1659.50,346.94 1682.07,333.05 C1684.80,331.37 1687.25,330.00 1687.52,330.00 C1687.78,330.00 1688.00,340.95 1688.00,354.33 L 1688.00 378.65 L 1678.25 383.32 C1666.37,389.00 1656.77,391.53 1641.85,392.93 ZM 1425.00 329.00 L 1424.50 389.50 L 1396.25 389.77 L 1368.00 390.03 L 1368.00 182.00 L 1410.73 182.00 L 1415.12 199.18 C1417.53,208.63 1419.99,216.52 1420.59,216.71 C1421.19,216.90 1423.26,214.68 1425.18,211.78 C1436.31,195.03 1453.01,183.24 1471.09,179.38 C1476.49,178.22 1481.37,177.95 1489.08,178.36 C1502.76,179.10 1503.27,179.31 1502.61,183.88 C1502.32,185.87 1501.32,197.43 1500.38,209.56 L 1498.68 231.63 L 1483.59 231.59 C1466.79,231.55 1460.13,232.87 1449.71,238.31 C1438.78,244.00 1432.76,250.82 1427.65,263.26 C1425.55,268.37 1425.49,269.96 1425.00,329.00 ZM 959.00 346.63 C964.89,348.35 980.01,347.71 986.32,345.47 C993.59,342.90 1001.96,334.62 1005.86,326.16 C1010.22,316.68 1011.96,307.96 1012.68,291.90 C1013.65,270.09 1010.24,250.68 1003.59,240.15 C1000.11,234.63 992.61,228.40 987.19,226.52 C975.64,222.51 956.93,223.92 947.37,229.53 C938.78,234.56 932.07,246.70 929.43,262.00 C927.26,274.55 927.90,305.21 930.52,315.00 C935.20,332.41 944.07,342.27 959.00,346.63 ZM 1810.08 346.42 C1817.12,348.98 1833.86,348.13 1841.05,344.83 C1855.71,338.12 1861.79,326.32 1864.08,300.10 C1865.94,278.96 1862.87,254.50 1856.90,242.80 C1853.74,236.60 1847.47,230.46 1841.73,227.92 C1837.59,226.08 1834.21,225.52 1825.48,225.20 C1819.15,224.97 1812.70,225.27 1810.32,225.91 C1790.84,231.16 1779.41,258.00 1781.34,294.01 C1782.89,322.95 1792.18,339.90 1810.08,346.42 Z" fill="rgb(0,0,0)" data-index="0"></path>
<path d="M 309.28 526.15 C302.78,528.46 282.56,529.58 275.50,528.02 C253.52,523.17 233.96,506.21 225.31,484.50 C222.65,477.85 222.51,476.67 222.45,460.72 L 222.39 443.95 L 167.94 389.41 C138.00,359.41 112.28,333.98 110.78,332.89 C108.17,330.98 107.77,330.97 100.57,332.45 C85.70,335.53 73.06,333.72 58.00,326.36 C40.78,317.95 27.32,301.49 22.46,282.91 C19.86,272.96 20.83,252.83 24.36,243.63 C28.34,233.27 33.19,226.02 41.31,218.31 C49.03,210.97 56.86,206.12 66.00,203.01 L 71.50 201.14 L 71.76 169.19 L 72.03 137.24 L 66.81 135.53 C44.47,128.23 26.57,108.57 22.03,86.38 C20.08,76.84 21.09,58.04 23.98,50.00 C31.65,28.69 49.90,11.97 71.46,6.51 C79.17,4.56 95.83,4.56 103.54,6.51 C118.49,10.30 133.76,20.87 142.17,33.24 C151.10,46.41 154.49,57.48 154.31,73.00 C154.11,91.19 147.70,106.23 134.50,119.51 C127.34,126.71 116.39,133.36 107.24,136.06 L 102.97 137.32 L 103.24 169.41 L 103.50 201.50 L 106.00 201.84 C110.14,202.41 122.13,208.44 128.23,213.01 C139.25,221.27 148.94,235.99 152.65,250.11 C154.97,258.95 154.92,274.60 152.55,283.00 C150.24,291.17 143.97,303.50 139.45,308.78 C137.55,311.00 136.00,313.22 136.00,313.71 C136.00,314.20 159.18,337.46 187.51,365.40 L 239.02 416.19 L 244.89 410.76 C258.25,398.40 273.25,393.27 293.25,394.23 C310.28,395.05 323.80,401.07 336.05,413.28 C344.48,421.68 349.51,430.20 354.34,444.26 C354.91,445.91 357.26,446.01 389.53,445.76 L 424.11 445.50 L 426.32 438.94 C432.65,420.11 448.70,404.18 468.20,397.36 C477.98,393.95 495.30,393.04 505.38,395.41 C516.61,398.06 527.31,404.27 536.51,413.48 C550.25,427.23 555.86,439.62 556.74,458.14 C557.38,471.55 555.42,481.05 549.68,492.35 C544.19,503.15 531.72,515.88 521.30,521.31 C501.67,531.53 478.25,531.55 458.84,521.35 C450.05,516.73 437.19,504.80 432.78,497.18 C428.75,490.21 425.09,482.05 425.04,479.88 C425.01,478.80 423.76,478.06 421.25,477.64 C416.47,476.85 359.23,476.83 356.29,477.62 C354.71,478.04 353.69,479.56 352.68,483.02 C347.36,501.16 329.44,518.97 309.28,526.15 ZM 302.50 332.50 C273.02,338.66 241.74,323.15 228.71,295.93 C223.14,284.30 221.80,278.62 221.83,266.76 C221.86,254.04 223.22,248.04 228.54,237.23 C236.54,220.99 250.90,208.36 268.02,202.52 C275.69,199.91 277.74,199.63 289.50,199.66 C300.39,199.69 303.48,200.05 308.50,201.90 C311.80,203.12 315.22,204.35 316.10,204.63 C317.23,205.00 333.97,188.82 372.10,150.52 C402.02,120.47 426.40,95.35 426.29,94.69 C426.17,94.04 425.36,91.03 424.48,88.00 C421.95,79.30 422.89,58.62 426.22,49.76 C433.03,31.61 446.11,17.68 463.50,10.06 C481.14,2.34 504.76,3.42 522.29,12.74 C535.80,19.92 548.87,35.67 554.05,51.00 C557.08,60.00 557.87,78.01 555.61,87.03 C550.90,105.83 536.67,123.75 520.00,131.85 C515.33,134.12 508.82,136.66 505.54,137.49 C497.86,139.44 483.07,139.42 475.46,137.47 C468.20,135.60 456.43,130.15 450.55,125.93 C447.77,123.93 445.52,123.02 444.34,123.39 C443.31,123.72 419.86,146.67 392.21,174.39 L 341.93 224.80 L 344.99 229.33 C353.05,241.28 356.39,253.72 355.76,269.50 C355.03,287.78 349.38,300.50 335.96,314.08 C329.89,320.22 326.57,322.62 318.96,326.38 C313.76,328.94 306.35,331.70 302.50,332.50 ZM 103.97 526.85 C72.44,534.27 39.58,517.76 26.03,487.69 C22.25,479.29 21.00,472.70 21.00,461.11 C21.00,444.27 25.65,430.92 35.79,418.67 C48.80,402.96 64.71,395.06 85.00,394.26 C106.29,393.42 119.62,398.58 134.56,413.47 C144.83,423.70 149.52,431.57 153.07,444.54 C154.93,451.32 155.18,454.17 154.72,463.99 C153.85,482.93 148.61,494.50 134.55,508.54 C127.15,515.92 123.95,518.33 117.00,521.68 C112.32,523.94 106.46,526.27 103.97,526.85 ZM 304.54 137.49 C297.00,139.40 280.31,139.35 273.00,137.40 C252.51,131.93 235.58,117.63 227.03,98.56 C223.32,90.29 222.00,83.08 222.00,71.03 C222.00,59.35 223.72,52.16 229.18,41.00 C237.29,24.41 254.63,10.96 273.72,6.45 C283.32,4.18 300.71,4.85 310.00,7.85 C332.32,15.05 350.50,35.72 355.11,59.14 C356.76,67.52 355.72,84.95 353.13,92.28 C349.22,103.36 344.82,110.26 336.04,119.10 C329.15,126.04 325.86,128.50 319.00,131.84 C314.33,134.12 307.82,136.66 304.54,137.49 ZM 503.00 332.50 C481.36,337.05 458.97,330.04 442.47,313.53 C428.70,299.76 423.00,285.94 423.00,266.32 C423.00,246.88 428.70,233.16 442.44,219.49 C456.60,205.43 470.53,199.58 490.00,199.53 C500.04,199.50 502.63,199.87 510.35,202.40 C532.90,209.79 550.52,228.96 555.55,251.57 C557.84,261.86 557.17,277.90 554.07,287.00 C546.18,310.23 526.80,327.49 503.00,332.50 Z" fill="rgb(1,115,216)" data-index="1"></path>

</g>
</svg>