<?xml version="1.0" encoding="UTF-8"?>
<svg version="1.1" xmlns="http://www.w3.org/2000/svg" width="512" height="512">
<path d="M0 0 C4.25779657 3.45945971 6.48358779 6.36617193 7.38549805 11.73022461 C7.84787603 21.51886487 4.59203199 30.0140039 1.39221191 39.10873413 C0.34759558 42.07789279 -0.67507122 45.05385326 -1.69238281 48.0324707 C-2.75188451 51.13361667 -3.81271462 54.23423525 -4.88024902 57.33262634 C-7.99574917 66.37577592 -10.98048357 75.45768136 -13.9208374 84.55905151 C-15.34344933 88.96150399 -16.77360262 93.3615063 -18.203125 97.76171875 C-18.50004242 98.67617264 -18.79695984 99.59062653 -19.10287476 100.53279114 C-23.21047111 113.17579059 -27.35815452 125.80569025 -31.5 138.4375 C-37.0168396 155.26538431 -42.52466674 172.09606296 -48 188.9375 C-53.88517201 207.03954953 -59.8092961 225.12872685 -65.73876953 243.21630859 C-70.84209498 258.78478341 -75.93450535 274.35667502 -81 289.9375 C-86.88550018 308.04055894 -92.80990058 326.13076301 -98.73977661 344.21932983 C-103.82232579 359.72417538 -108.89309331 375.23270429 -113.9375 390.75 C-119.46929077 407.76284641 -125.02915132 424.76645511 -130.60011673 441.7665062 C-131.23370681 443.70027193 -131.86700786 445.63413207 -132.50021362 447.56802368 C-132.90353912 448.79959198 -133.30686462 450.03116028 -133.72241211 451.30004883 C-134.32278542 453.13378304 -134.32278542 453.13378304 -134.93528748 455.00456238 C-135.73527746 457.44117309 -136.53844232 459.87674384 -137.34486389 462.31123352 C-139.25426565 468.07837023 -141.139202 473.84974436 -142.93510818 479.65316105 C-143.79248234 482.41423495 -144.66750132 485.16955815 -145.5446701 487.92439842 C-145.95698762 489.23494937 -146.36119986 490.54808297 -146.75653839 491.86385536 C-149.13291802 499.76172404 -151.02741175 504.78483918 -158 509.4375 C-162.18365063 511.52932531 -167.44407619 510.86685408 -172 510.4375 C-178.34588573 507.37787652 -181.76767872 502.09743133 -185.1796875 496.10546875 C-185.77144775 495.07212402 -186.36320801 494.0387793 -186.97290039 492.97412109 C-187.60059326 491.86891113 -188.22828613 490.76370117 -188.875 489.625 C-189.88134406 487.86477278 -190.88929624 486.10547257 -191.89729309 484.34619141 C-192.58559075 483.14464465 -193.27340253 481.94281943 -193.96073914 480.74072266 C-197.29466324 474.9118255 -200.67366708 469.10963081 -204.0625 463.3125 C-204.63605225 462.33031494 -205.20960449 461.34812988 -205.80053711 460.33618164 C-207.53308952 457.36960229 -209.26641967 454.40347877 -211 451.4375 C-218.83575666 438.03132119 -226.64037711 424.60829317 -234.39208984 411.15332031 C-240.31282049 400.88213308 -246.2843153 390.64098192 -252.26611328 380.40527344 C-255.75856945 374.42747885 -259.2456811 368.44656354 -262.73266602 362.46557617 C-265.74412126 357.301085 -268.75952673 352.13895988 -271.78125 346.98046875 C-272.40386719 345.91634766 -273.02648437 344.85222656 -273.66796875 343.75585938 C-274.84634345 341.74206978 -276.02593212 339.72898979 -277.20703125 337.71679688 C-278.81690166 334.96388005 -280.41164439 332.20287918 -282 329.4375 C-282.56493164 328.46514404 -283.12986328 327.49278809 -283.71191406 326.4909668 C-284.25557617 325.53230713 -284.79923828 324.57364746 -285.359375 323.5859375 C-285.84889648 322.7304834 -286.33841797 321.8750293 -286.84277344 320.99365234 C-288.90433518 316.43994952 -289.01227484 312.2850133 -288 307.4375 C-285.04908012 299.67471978 -278.71393078 293.09033869 -273.61572266 286.62841797 C-269.18872413 281.01451281 -264.92276904 275.3051813 -260.75 269.5 C-260.20142334 268.736875 -259.65284668 267.97375 -259.08764648 267.1875 C-257.01665172 264.29447357 -254.97383483 261.39825224 -253 258.4375 C-263.67978347 266.05287673 -274.22727369 273.80299681 -284.56518555 281.87890625 C-287.0161509 283.77277957 -289.49305352 285.61847158 -292 287.4375 C-292.81210937 288.03320801 -293.62421875 288.62891602 -294.4609375 289.24267578 C-300.58974243 293.36922721 -305.6504285 294.77968979 -313 293.4375 C-316.26050382 292.3120469 -319.06297572 290.73224411 -322 288.9375 C-322.84046875 288.45047607 -323.6809375 287.96345215 -324.546875 287.46166992 C-327.3796174 285.81119835 -330.18968089 284.12583746 -333 282.4375 C-335.10330709 281.19255704 -337.20750538 279.94911875 -339.3125 278.70703125 C-342.69351501 276.70879543 -346.07293058 274.708078 -349.4453125 272.6953125 C-357.57616701 267.8452766 -365.7673292 263.11232524 -374 258.4375 C-383.22414315 253.19792153 -392.38692579 247.86913363 -401.5 242.4375 C-410.6775781 236.96855465 -419.90249783 231.59600653 -429.1875 226.3125 C-440.83733061 219.68292968 -452.43197333 212.96421728 -463.99853516 206.19042969 C-467.16535984 204.34092577 -470.33788938 202.50151785 -473.51171875 200.6640625 C-474.58711914 200.04031738 -475.66251953 199.41657227 -476.77050781 198.77392578 C-478.81154566 197.59040075 -480.85377473 196.40892647 -482.89746094 195.22998047 C-501.50787594 184.42174811 -501.50787594 184.42174811 -505 177.4375 C-505.5072965 171.88218752 -505.76260422 167.01919764 -503.3125 161.9375 C-499.18487773 157.47520566 -495.48136937 154.97199957 -489.68896484 153.09423828 C-489.073615 152.89150425 -488.45826515 152.68877022 -487.82426834 152.47989273 C-485.7896522 151.81236779 -483.75048386 151.16010236 -481.7109375 150.5078125 C-480.26657272 150.03727704 -478.82251744 149.56579061 -477.37875366 149.09341431 C-473.51582287 147.83238679 -469.64879814 146.58438697 -465.78086853 145.33879089 C-461.74753334 144.03737257 -457.71819762 142.72369 -453.68847656 141.41113281 C-446.56254584 139.09181619 -439.43362777 136.78186552 -432.30310822 134.47669983 C-426.14453659 132.48537197 -419.98925391 130.48407321 -413.8359375 128.4765625 C-412.10889052 127.91323705 -410.38183986 127.34992286 -408.65478516 126.78662109 C-407.8403595 126.52097351 -407.02593384 126.25532593 -406.18682861 125.98162842 C-402.89880843 124.91010855 -399.60976725 123.84174092 -396.32077026 122.77322388 C-382.2055346 118.18670672 -368.10314201 113.56104174 -354 108.9375 C-336.32814403 103.14422494 -318.65231956 97.36368291 -300.96630859 91.61376953 C-283.70806449 86.00211208 -266.46283604 80.35094798 -249.21817017 74.69772339 C-233.71332569 69.61517456 -218.20490774 64.54406039 -202.6875 59.5 C-185.28194596 53.84209845 -167.8898579 48.14341478 -150.5 42.4375 C-132.21660783 36.43843608 -113.92962248 30.45086298 -95.6300354 24.50134277 C-79.47628174 19.24912445 -63.33094197 13.97130961 -47.1875 8.6875 C-45.96830872 8.28851501 -44.74911743 7.88953003 -43.49298096 7.47845459 C-40.03040216 6.34523951 -36.56791342 5.21174982 -33.10546875 4.078125 C-32.07003433 3.73921234 -31.03459991 3.40029968 -29.9677887 3.05111694 C-29.00412888 2.73550812 -28.04046906 2.41989929 -27.04760742 2.09472656 C-26.16217758 1.80526154 -25.27674774 1.51579651 -24.36448669 1.21755981 C-22.40181628 0.57006185 -20.44561176 -0.09699671 -18.49121094 -0.76904297 C-12.71087184 -2.6100957 -5.50317004 -2.76941386 0 0 Z M-46.63476562 44.51025391 C-47.30831935 44.73190248 -47.98187307 44.95355104 -48.67583752 45.18191624 C-50.92071234 45.92178523 -53.16344568 46.6679429 -55.40625 47.4140625 C-56.98796819 47.93663227 -58.56982412 48.45878528 -60.15180969 48.98054504 C-63.51745619 50.09144909 -66.88219935 51.20503203 -70.24624634 52.32077026 C-75.5164559 54.06864235 -80.78863824 55.81050392 -86.0612793 57.55102539 C-87.81468476 58.12988974 -89.56808747 58.7087624 -91.32148743 59.28764343 C-92.61549689 59.71484963 -92.61549689 59.71484963 -93.93564796 60.15068626 C-96.54006669 61.01076038 -99.14429216 61.87141716 -101.74845886 62.73225403 C-114.09264786 66.81230252 -126.44613486 70.86262019 -138.8125 74.875 C-142.08734279 75.93848451 -145.36205479 77.00237125 -148.63671875 78.06640625 C-149.44862671 78.33017059 -150.26053467 78.59393494 -151.0970459 78.86569214 C-162.77901214 82.66296837 -174.45133618 86.48979639 -186.125 90.3125 C-204.57834595 96.35492355 -223.03410814 102.38984564 -241.49328613 108.41442871 C-257.95686307 113.78795264 -274.41651098 119.17341457 -290.875 124.5625 C-307.86106883 130.12431275 -324.85118193 135.67334468 -341.84884644 141.19961548 C-353.09392903 144.85608122 -364.33418564 148.52703846 -375.5703125 152.2109375 C-376.20399183 152.41867105 -376.83767117 152.62640461 -377.4905529 152.84043312 C-384.36244212 155.0932068 -391.23391044 157.34725628 -398.10473633 159.60327148 C-414.38312191 164.94471952 -430.6836498 170.21335763 -447 175.4375 C-443.71205546 178.10976196 -440.53425152 180.39637635 -436.81640625 182.43359375 C-435.31895874 183.26105103 -435.31895874 183.26105103 -433.79125977 184.10522461 C-432.72576904 184.68925049 -431.66027832 185.27327637 -430.5625 185.875 C-422.32940974 190.43491118 -414.14830557 195.05846455 -406.0625 199.875 C-398.18320927 204.56682448 -390.26455172 209.18254586 -382.3125 213.75 C-373.37335413 218.88724211 -364.48322014 224.099518 -355.625 229.375 C-346.02724395 235.08610795 -336.38288475 240.70666321 -326.6875 246.25 C-326.08891174 246.59288055 -325.49032349 246.93576111 -324.87359619 247.28903198 C-319.3075185 250.47502735 -313.75697841 253.60666173 -308 256.4375 C-307.28199219 255.87804687 -306.56398438 255.31859375 -305.82421875 254.7421875 C-295.23291479 246.53821357 -284.43814423 238.61828413 -273.63085938 230.70214844 C-263.49900588 223.27918799 -253.45659682 215.75456439 -243.48486328 208.11767578 C-238.18846947 204.07235215 -232.83897706 200.13343368 -227.38549805 196.30371094 C-221.98588599 192.48514832 -216.74805274 188.46071304 -211.5 184.4375 C-205.00142055 179.45608513 -198.47456526 174.54454659 -191.77807617 169.83227539 C-186.89747664 166.39422487 -182.1552307 162.79382783 -177.42578125 159.15234375 C-172.61937262 155.75457662 -167.67892608 155.95022865 -162 156.4375 C-157.26170231 158.10467882 -154.7988062 160.29112045 -152 164.4375 C-150.28160995 169.59267016 -149.90198894 174.74672192 -151.98828125 179.859375 C-155.46691703 185.85634711 -159.8401094 191.26017157 -164.109375 196.70703125 C-167.40608865 200.9310889 -170.57887042 205.24377786 -173.75 209.5625 C-174.34377441 210.37017822 -174.93754883 211.17785645 -175.54931641 212.01000977 C-177.94712643 215.2737493 -180.34221292 218.53947441 -182.73535156 221.80664062 C-190.15831201 231.93849412 -197.68293561 241.98090318 -205.31982422 251.95263672 C-209.36514785 257.24903053 -213.30406632 262.59852294 -217.13378906 268.05200195 C-220.95235543 273.45161931 -224.97690117 278.68935364 -229 283.9375 C-236.63565215 293.90289982 -244.07022946 303.96480623 -251 314.4375 C-250.62415771 315.08895996 -250.24831543 315.74041992 -249.86108398 316.41162109 C-248.7173407 318.39410945 -247.57362612 320.37661435 -246.42993164 322.35913086 C-245.0816673 324.69600123 -243.73322613 327.03276859 -242.38452148 329.36938477 C-238.99358559 335.24472771 -235.60545939 341.12162695 -232.2265625 347.00390625 C-225.91348566 357.98580183 -219.54223279 368.9280006 -213.0625 379.8125 C-206.88841107 390.18551013 -200.85453159 400.62931385 -194.88598633 411.12133789 C-189.29090065 420.95170322 -183.60555032 430.72721629 -177.890625 440.48828125 C-175.56773739 444.45692419 -173.27196469 448.43950388 -171 452.4375 C-168.91186486 449.30529729 -167.96044246 446.64936425 -166.79199219 443.078125 C-166.47370311 442.11165999 -166.47370311 442.11165999 -166.14898396 441.12567043 C-165.44390949 438.98102051 -164.74539046 436.8342943 -164.046875 434.6875 C-163.55047392 433.17305445 -163.05367558 431.65873906 -162.5565033 430.14454651 C-161.22513999 426.08584792 -159.89944762 422.02531781 -158.5748558 417.96440506 C-157.19613169 413.74075174 -155.81222446 409.51879726 -154.42895508 405.29663086 C-151.27927605 395.67910298 -148.13837841 386.05872045 -145 376.4375 C-144.423638 374.67107147 -144.423638 374.67107147 -143.83563232 372.86895752 C-141.25157298 364.94857632 -138.67052476 357.02722242 -136.09667969 349.10351562 C-131.25718104 334.20629388 -126.37963948 319.32161562 -121.5 304.4375 C-115.98335833 287.60955046 -110.47533343 270.77893758 -105 253.9375 C-99.11449982 235.83444106 -93.19009942 217.74423699 -87.26022339 199.65567017 C-81.90462719 183.31786626 -76.56391894 166.97538981 -71.24969482 150.62408447 C-67.50767168 139.11229199 -63.74697849 127.60670674 -59.97265625 116.10546875 C-59.75269297 115.43510023 -59.53272968 114.76473171 -59.30610085 114.074049 C-57.32144636 108.02560539 -55.3367035 101.97719106 -53.34890747 95.92977905 C-50.5569424 87.43527741 -47.77341052 78.93807789 -45 70.4375 C-44.60550659 69.23049438 -44.21101318 68.02348877 -43.80456543 66.77990723 C-42.66420639 63.28455339 -41.53026501 59.78718695 -40.3984375 56.2890625 C-40.05390533 55.23488129 -39.70937317 54.18070007 -39.35440063 53.09457397 C-39.04328339 52.12831085 -38.73216614 51.16204773 -38.41162109 50.16650391 C-38.13772552 49.32181549 -37.86382996 48.47712708 -37.58163452 47.60684204 C-36.87051548 45.32888413 -36.87051548 45.32888413 -37 42.4375 C-40.60632744 42.4375 -43.20430726 43.37438635 -46.63476562 44.51025391 Z " fill="#FFFFFF" transform="translate(505,1.5625)"/>
<path d="M0 0 C4.31182727 3.71017695 6.7238653 7.11311484 7.625 12.75 C8.03307853 19.00720418 5.76708027 23.24428798 1.71337891 27.86540222 C-2.90816327 33.06556156 -7.81539322 37.97917182 -12.7265625 42.90356445 C-13.76073864 43.94402016 -14.79472999 44.98465958 -15.82855225 46.02546692 C-19.19467207 49.41242678 -22.56594506 52.79423323 -25.9375 56.17578125 C-27.10348646 57.34582077 -28.26944086 58.51589225 -29.43536377 59.6859951 C-34.90830386 65.17793128 -40.38361338 70.66749147 -45.86187553 76.15411884 C-52.17018361 82.47222223 -58.4701009 88.79854218 -64.76312447 95.13186866 C-69.64207389 100.04098421 -74.52868048 104.94239255 -79.42107964 109.83810395 C-82.33752229 112.75689351 -85.25058645 115.67887418 -88.15557861 118.6090641 C-90.8850707 121.36185506 -93.62395305 124.10494508 -96.37024689 126.84097099 C-97.37383517 127.84406451 -98.37403226 128.85056466 -99.37047577 129.86075592 C-105.63642993 136.20827168 -110.14376992 140.73819666 -119.25 141.75 C-123.84690505 141.54470133 -127.60055501 140.00386588 -131.3125 137.3125 C-135.10949106 132.54192149 -136.72069406 128.6110546 -136.5730629 122.46160412 C-135.47416102 113.3979401 -127.81067642 107.23582804 -121.70410156 101.1706543 C-120.61223661 100.07172255 -119.5212148 98.97195254 -118.43096924 97.87141418 C-115.48147305 94.89950294 -112.51948251 91.94035435 -109.55431843 88.98408484 C-107.0753344 86.5102261 -104.60259799 84.03016945 -102.12981772 81.55011207 C-96.29510194 75.69842319 -90.45020748 69.85704365 -84.59863281 64.0222168 C-78.57059423 58.01110881 -72.55913356 51.98378525 -66.55572534 45.94808644 C-61.39098835 40.75662942 -56.21657049 35.5749659 -51.0342176 30.40109378 C-47.94335348 27.3151503 -44.85613927 24.22577501 -41.77802277 21.12711143 C-38.88353805 18.21423111 -35.97709317 15.31383141 -33.0611496 12.42243767 C-31.99586448 11.36214748 -30.93477803 10.29761869 -29.87835693 9.22849655 C-21.0808865 0.33370444 -12.48549113 -6.36053322 0 0 Z " fill="#FFFFFF" transform="translate(171.3125,335.6875)"/>
<path d="M0 0 C3.16756589 2.14154998 5.10760454 4.83630283 6.796875 8.21484375 C6.97143195 10.12638545 7.06402646 12.04588431 7.109375 13.96484375 C7.16544922 15.50398438 7.16544922 15.50398438 7.22265625 17.07421875 C6.42392755 22.96575891 2.25986826 27.0024936 -1.81640625 31.08691406 C-2.72414795 32.00096008 -3.63188965 32.9150061 -4.56713867 33.85675049 C-5.54971285 34.83574551 -6.5325479 35.81447875 -7.515625 36.79296875 C-8.53194899 37.81064181 -9.54797609 38.82861145 -10.5637207 39.84686279 C-12.68540627 41.97148556 -14.81063818 44.09247743 -16.93847656 46.2109375 C-19.66221478 48.92325286 -22.3768358 51.64448851 -25.08888245 54.36848831 C-27.18193664 56.46877423 -29.27973669 58.56426768 -31.3789978 60.65834808 C-32.3819753 61.65999423 -33.38347702 62.66312045 -34.38345337 63.66776276 C-35.78073791 65.0701371 -37.18514263 66.46540617 -38.58984375 67.86035156 C-39.78420044 69.05232147 -39.78420044 69.05232147 -41.00268555 70.26837158 C-45.85724275 74.5626322 -49.96920231 74.65035806 -56.2890625 74.52734375 C-60.25936319 74.10157424 -62.31791223 72.95579588 -65.203125 70.21484375 C-69.25950854 64.84287636 -70.75653754 60.9664768 -70.203125 54.21484375 C-67.18346481 46.41836822 -61.85666013 41.281928 -55.99609375 35.4765625 C-54.98666506 34.46443371 -53.97783031 33.45171226 -52.96955872 32.43843079 C-50.86365951 30.32666359 -48.75077165 28.22222594 -46.63256836 26.12280273 C-43.92903833 23.44208988 -41.24390799 20.74377387 -38.56376171 18.03970623 C-36.48711058 15.94854899 -34.40096185 13.86707591 -32.31188393 11.78833961 C-31.31827179 10.79737995 -30.32757836 9.80348418 -29.3399868 8.80652428 C-20.54820595 -0.05032168 -12.43646497 -6.77257104 0 0 Z " fill="#FFFFFF" transform="translate(93.203125,296.78515625)"/>
<path d="M0 0 C4.94586526 2.29629459 7.30760518 5.31323865 10 10 C11.65666006 14.96998018 11.51658391 18.66622945 9.6184082 23.56713867 C6.48608921 29.55323541 1.54523643 34.03077534 -3.20703125 38.73828125 C-4.21645994 39.75041004 -5.22529469 40.76313149 -6.23356628 41.77641296 C-8.33946549 43.88818016 -10.45235335 45.99261781 -12.57055664 48.09204102 C-15.27408667 50.77275387 -17.95921701 53.47106988 -20.63936329 56.17513752 C-22.71601442 58.26629476 -24.80216315 60.34776784 -26.89124107 62.42650414 C-27.88485321 63.4174638 -28.87554664 64.41135957 -29.8631382 65.40831947 C-40.70008317 76.32546513 -40.70008317 76.32546513 -49.4375 77.4375 C-55.22749312 76.72644821 -59.41479334 74.66649931 -63.4375 70.4375 C-65.75681263 66.8193723 -66.2016158 63.90693572 -66.3125 59.6875 C-66.34988281 58.76324219 -66.38726562 57.83898437 -66.42578125 56.88671875 C-65.58145662 51.16235267 -61.35069728 47.09982976 -57.38671875 43.12792969 C-56.0251062 41.75686066 -56.0251062 41.75686066 -54.63598633 40.35809326 C-53.65341215 39.37909824 -52.6705771 38.400365 -51.6875 37.421875 C-50.67117601 36.40420194 -49.65514891 35.3862323 -48.6394043 34.36798096 C-46.51771873 32.24335819 -44.39248682 30.12236632 -42.26464844 28.00390625 C-39.54091022 25.29159089 -36.8262892 22.57035524 -34.11424255 19.84635544 C-32.02118836 17.74606952 -29.92338831 15.65057607 -27.8241272 13.55649567 C-26.8211497 12.55484952 -25.81964798 11.5517233 -24.81967163 10.54708099 C-23.42238709 9.14470665 -22.01798237 7.74943758 -20.61328125 6.35449219 C-19.81704346 5.55984558 -19.02080566 4.76519897 -18.20043945 3.94647217 C-12.71336619 -0.90730164 -7.06496896 -0.75763742 0 0 Z " fill="#FFFFFF" transform="translate(207,412)"/>
</svg>
