<?xml version="1.0" encoding="UTF-8"?>
<svg version="1.1" xmlns="http://www.w3.org/2000/svg" width="2000" height="1945">
<path d="M0 0 C0.81303589 -0.00701431 1.62607178 -0.01402863 2.46374512 -0.02125549 C5.07744957 -0.03867376 7.69092711 -0.04510923 10.3046875 -0.046875 C11.19951843 -0.04754974 12.09434937 -0.04822449 13.01629639 -0.04891968 C26.94280912 -0.03224588 40.4745174 0.53611622 54.1796875 3.203125 C55.0660791 3.36941406 55.9524707 3.53570313 56.86572266 3.70703125 C114.36136391 14.77373817 170.41236907 47.74947554 204.99267578 95.56298828 C206.2121494 97.24797878 207.457758 98.91123446 208.70703125 100.57421875 C245.8876927 150.66245238 262.07851276 215.50096358 253.1796875 277.203125 C247.03391908 317.76519657 232.22961862 356.49786689 207.1796875 389.203125 C206.49261719 390.10160156 205.80554688 391.00007813 205.09765625 391.92578125 C201.09270037 397.0366421 196.84765441 401.89868785 192.46875 406.69140625 C190.92708521 408.3830282 189.40123306 410.08918151 187.890625 411.80859375 C183.27590649 417.04970876 178.53062929 421.72863057 173.1796875 426.203125 C172.24640625 427.02425781 171.313125 427.84539062 170.3515625 428.69140625 C141.47302875 453.97830876 106.27481307 470.92934361 69.1796875 480.203125 C68.8496875 555.443125 68.5196875 630.683125 68.1796875 708.203125 C73.4596875 709.523125 78.7396875 710.843125 84.1796875 712.203125 C117.83257579 722.18205095 150.13054412 740.239568 175.46484375 764.60546875 C177.68816746 766.73282165 179.94480634 768.73260049 182.3046875 770.703125 C221.98617601 805.33122979 245.81720836 860.06893156 253.1796875 911.203125 C253.29683105 912.0163623 253.41397461 912.82959961 253.53466797 913.66748047 C262.36427528 978.33484218 242.40689403 1042.7128326 203.68994141 1094.40039062 C200.06084633 1099.1715731 196.2551977 1103.65041165 192.1171875 1107.9921875 C189.85839379 1110.56976258 188.05892383 1113.34080584 186.1796875 1116.203125 C186.82276179 1116.80125079 186.82276179 1116.80125079 187.47882748 1117.41145992 C197.67717892 1126.91303127 207.68456099 1136.57416059 217.51109505 1146.45936775 C219.72585541 1148.68722771 221.94401977 1150.91165288 224.16294861 1153.13536072 C228.85891554 1157.84257574 233.5508493 1162.55379745 238.2421875 1167.265625 C243.71959578 1172.76678008 249.19872377 1178.26620128 254.68206596 1183.76144218 C256.85320545 1185.93899774 259.02128335 1188.1195689 261.18922424 1190.30030823 C262.52842555 1191.64314389 263.86776848 1192.98583833 265.20727539 1194.32836914 C265.79700638 1194.92326645 266.38673737 1195.51816376 266.99433899 1196.13108826 C269.95836616 1199.09548395 272.98165668 1201.93518617 276.15354919 1204.67698669 C280.13353823 1208.12048564 283.86526892 1211.76075937 287.5703125 1215.49609375 C288.26088745 1216.18812897 288.9514624 1216.88016418 289.66296387 1217.59317017 C291.14813728 1219.08212154 292.63215542 1220.57222602 294.1151123 1222.06338501 C296.46788485 1224.42903136 298.82386338 1226.79144328 301.18066406 1229.15307617 C307.0307707 1235.0164855 312.87540133 1240.88534352 318.72021484 1246.75402832 C323.66953157 1251.72313659 328.62093221 1256.69015082 333.57507324 1261.65444946 C335.88578221 1263.97159737 338.19343641 1266.29175759 340.50097656 1268.61206055 C341.93018885 1270.04490844 343.35954346 1271.4776144 344.7890625 1272.91015625 C345.42098511 1273.54724518 346.05290771 1274.18433411 346.70397949 1274.84072876 C349.77359724 1277.91070403 352.89485548 1280.86358177 356.1796875 1283.703125 C360.15193036 1287.13689428 363.87387778 1290.76943861 367.5703125 1294.49609375 C368.26088745 1295.18812897 368.9514624 1295.88016418 369.66296387 1296.59317017 C371.14813728 1298.08212154 372.63215542 1299.57222602 374.1151123 1301.06338501 C376.46788485 1303.42903136 378.82386338 1305.79144328 381.18066406 1308.15307617 C387.0307707 1314.0164855 392.87540133 1319.88534352 398.72021484 1325.75402832 C403.66953157 1330.72313659 408.62093221 1335.69015082 413.57507324 1340.65444946 C415.88578221 1342.97159737 418.19343641 1345.29175759 420.50097656 1347.61206055 C421.93018885 1349.04490844 423.35954346 1350.4776144 424.7890625 1351.91015625 C425.42098511 1352.54724518 426.05290771 1353.18433411 426.70397949 1353.84072876 C429.77359724 1356.91070403 432.89485548 1359.86358177 436.1796875 1362.703125 C440.15193036 1366.13689428 443.87387778 1369.76943861 447.5703125 1373.49609375 C448.26088745 1374.18812897 448.9514624 1374.88016418 449.66296387 1375.59317017 C451.14813728 1377.08212154 452.63215542 1378.57222602 454.1151123 1380.06338501 C456.46788485 1382.42903136 458.82386338 1384.79144328 461.18066406 1387.15307617 C467.0307707 1393.0164855 472.87540133 1398.88534352 478.72021484 1404.75402832 C483.66953157 1409.72313659 488.62093221 1414.69015082 493.57507324 1419.65444946 C495.88578221 1421.97159737 498.19343641 1424.29175759 500.50097656 1426.61206055 C501.93018885 1428.04490844 503.35954346 1429.4776144 504.7890625 1430.91015625 C505.42098511 1431.54724518 506.05290771 1432.18433411 506.70397949 1432.84072876 C510.46879436 1436.60598212 514.36171226 1440.15937828 518.39025879 1443.6405201 C520.50124728 1445.48392461 522.50628769 1447.40933144 524.484375 1449.39428711 C525.59462036 1450.50464577 525.59462036 1450.50464577 526.72729492 1451.63743591 C527.49533447 1452.41063675 528.26337402 1453.18383759 529.0546875 1453.98046875 C529.86462158 1454.79181778 530.67455566 1455.60316681 531.5090332 1456.43910217 C534.06829765 1459.00391639 536.6240428 1461.57220448 539.1796875 1464.140625 C540.92554883 1465.89150783 542.67164037 1467.64216113 544.41796875 1469.39257812 C548.67453948 1473.66011116 552.92823466 1477.93049366 557.1796875 1482.203125 C560.59348319 1480.59262476 562.73298439 1478.83707712 565.34765625 1476.08984375 C566.55095581 1474.84533447 566.55095581 1474.84533447 567.77856445 1473.57568359 C568.63281006 1472.68961426 569.48705566 1471.80354492 570.3671875 1470.890625 C579.06035452 1462.04372917 588.02158976 1454.2998098 598.1796875 1447.203125 C598.81712891 1446.75291992 599.45457031 1446.30271484 600.11132812 1445.83886719 C620.48177234 1431.54179434 642.45748838 1420.69224543 666.1796875 1413.203125 C667.46504395 1412.79682861 667.46504395 1412.79682861 668.77636719 1412.38232422 C688.59608846 1406.25575741 709.42867403 1402.78304397 730.1796875 1402.203125 C731.18902344 1402.16316406 732.19835937 1402.12320312 733.23828125 1402.08203125 C761.80300605 1401.48766121 790.1511916 1406.08123342 817.1796875 1415.203125 C817.83984863 1415.4201709 818.50000977 1415.6372168 819.18017578 1415.86083984 C845.22195564 1424.52367687 868.72598494 1438.29229223 890.1796875 1455.203125 C890.72657227 1455.63141602 891.27345703 1456.05970703 891.83691406 1456.50097656 C906.77980047 1468.3195258 920.78217953 1482.13624055 931.98535156 1497.56445312 C933.18202171 1499.20632762 934.40827457 1500.82229288 935.640625 1502.4375 C949.25942255 1520.56368195 959.60047302 1541.11153748 967.4296875 1562.328125 C967.74711914 1563.18591553 968.06455078 1564.04370605 968.39160156 1564.92749023 C971.14648131 1572.62797296 973.05020012 1580.21754732 975.1796875 1588.203125 C1099.9196875 1588.698125 1099.9196875 1588.698125 1227.1796875 1589.203125 C1227.5096875 1586.563125 1227.8396875 1583.923125 1228.1796875 1581.203125 C1235.9834197 1549.37483719 1252.43701821 1518.38784908 1273.1796875 1493.203125 C1273.62747559 1492.65382324 1274.07526367 1492.10452148 1274.53662109 1491.53857422 C1285.45006634 1478.22015007 1297.40833454 1465.59359311 1311.1796875 1455.203125 C1311.80649414 1454.72697754 1312.43330078 1454.25083008 1313.07910156 1453.76025391 C1355.28310156 1421.88403106 1404.17942649 1403.92496089 1457.1796875 1402.203125 C1458.82130859 1402.14125 1458.82130859 1402.14125 1460.49609375 1402.078125 C1497.25123118 1401.37044486 1534.31911364 1409.86709689 1567.1796875 1426.203125 C1568.04964355 1426.62996582 1568.91959961 1427.05680664 1569.81591797 1427.49658203 C1581.95618079 1433.49326233 1593.32543025 1440.10198839 1604.1796875 1448.203125 C1604.78893066 1448.656875 1605.39817383 1449.110625 1606.02587891 1449.578125 C1614.52209981 1455.96332865 1622.52685786 1462.8265708 1630.1796875 1470.203125 C1631.08750977 1471.07807617 1631.08750977 1471.07807617 1632.01367188 1471.97070312 C1639.93220734 1479.64904034 1647.49001673 1487.40856687 1654.1796875 1496.203125 C1654.59105957 1496.73276855 1655.00243164 1497.26241211 1655.42626953 1497.80810547 C1683.93592238 1534.60802363 1701.65458258 1578.8907506 1706.1796875 1625.203125 C1706.24881348 1625.90179687 1706.31793945 1626.60046875 1706.38916016 1627.3203125 C1711.86197724 1685.77404221 1694.91262785 1746.55517386 1659.1796875 1793.203125 C1658.52742188 1794.05519531 1657.87515625 1794.90726563 1657.203125 1795.78515625 C1655.23421614 1798.29288173 1653.22080645 1800.75378226 1651.1796875 1803.203125 C1650.73367188 1803.739375 1650.28765625 1804.275625 1649.828125 1804.828125 C1608.0694451 1854.8492175 1548.26753106 1885.82608371 1483.40625 1891.765625 C1420.90792518 1896.66434336 1360.21318269 1877.87834289 1311.1796875 1839.203125 C1310.62748535 1838.7695166 1310.0752832 1838.3359082 1309.50634766 1837.88916016 C1295.38786795 1826.68725542 1281.97550744 1813.64905222 1271.1796875 1799.203125 C1270.71320801 1798.59662109 1270.24672852 1797.99011719 1269.76611328 1797.36523438 C1249.7024867 1771.21999861 1231.3231681 1738.35096979 1227.1796875 1705.203125 C1144.0196875 1705.533125 1060.8596875 1705.863125 975.1796875 1706.203125 C973.1996875 1713.133125 971.2196875 1720.063125 969.1796875 1727.203125 C968.00549835 1730.73981095 966.84247111 1734.18212266 965.4921875 1737.640625 C965.1631543 1738.48931152 964.83412109 1739.33799805 964.49511719 1740.21240234 C954.96707567 1764.14645696 941.93807005 1785.68862663 925.1796875 1805.203125 C924.52355469 1805.97785156 923.86742187 1806.75257812 923.19140625 1807.55078125 C921.54778691 1809.46114549 919.87103384 1811.33490584 918.1796875 1813.203125 C917.35082031 1814.13511719 916.52195312 1815.06710937 915.66796875 1816.02734375 C874.34793876 1862.17537016 813.38460651 1888.22266523 752.1796875 1892.203125 C687.49067904 1895.31057528 624.62723924 1873.49447697 576.4921875 1830.140625 C564.39710037 1818.9717832 552.83478472 1807.57870141 543.1796875 1794.203125 C542.72787109 1793.57970215 542.27605469 1792.9562793 541.81054688 1792.31396484 C517.41658142 1758.37564717 501.30558661 1719.82636632 496.1796875 1678.203125 C496.03829346 1677.16925659 496.03829346 1677.16925659 495.89404297 1676.11450195 C494.80614632 1667.12621813 494.93864388 1658.05553314 494.9296875 1649.015625 C494.92801575 1648.12727966 494.92634399 1647.23893433 494.92462158 1646.32366943 C494.9227535 1629.75339108 496.21003443 1613.83900486 499.79931641 1597.63818359 C499.92483887 1596.83461426 500.05036133 1596.03104492 500.1796875 1595.203125 C500.31928542 1594.31063081 500.45888334 1593.41813662 500.6027115 1592.49859715 C499.97242051 1587.58845871 497.23536919 1585.42099372 493.79167461 1582.04051208 C493.10104859 1581.33906824 492.41042257 1580.6376244 491.69886848 1579.91492468 C489.36353181 1577.55050052 487.00723466 1575.20813177 484.65055847 1572.86499023 C482.96183735 1571.16435154 481.27441866 1569.4624187 479.58819848 1567.75930023 C475.90994045 1564.05037684 472.22237044 1560.35097826 468.52643394 1556.65968132 C463.03047937 1551.17061016 457.55168021 1545.6646519 452.07601602 1540.15534932 C441.72766148 1529.74481094 431.35863035 1519.35503084 420.98266592 1508.97201973 C412.97136039 1500.95520954 404.96466878 1492.93381984 396.96120644 1484.90917969 C394.65899957 1482.60099971 392.35676404 1480.29284832 390.05451661 1477.98470879 C389.48220429 1477.41093103 388.90989198 1476.83715327 388.32023686 1476.2459883 C372.21791872 1460.1028564 356.10881261 1443.96652403 339.98638439 1427.84347534 C339.37830623 1427.23536543 338.77022807 1426.62725552 338.14372329 1426.00071804 C335.06158031 1422.91843414 331.97939359 1419.83619397 328.89720079 1416.75395989 C328.28504575 1416.14179334 327.67289072 1415.52962678 327.04218554 1414.89890972 C325.80425854 1413.66095956 324.56632703 1412.42301391 323.32839102 1411.18507275 C304.06437384 1391.92060086 284.82637643 1372.63046811 265.60766602 1353.32080078 C244.02573959 1331.63675989 222.42196247 1309.97480881 200.78720552 1288.34347057 C198.48143967 1286.03790644 196.17576065 1283.73225551 193.87014198 1281.42654419 C193.30240879 1280.8588135 192.73467559 1280.29108281 192.14973836 1279.70614816 C183.00445076 1270.55986279 173.88032555 1261.39274355 164.76337161 1252.21822544 C155.60398959 1243.00216042 146.42064918 1233.81052109 137.21241846 1224.64325887 C131.73933715 1219.19315285 126.28505654 1213.72568312 120.85591109 1208.23180129 C116.80451786 1204.13612202 112.71998264 1200.07491491 108.62144116 1196.02646935 C106.96519545 1194.37991819 105.31995486 1192.7222105 103.68683555 1191.052719 C101.47050467 1188.7902795 99.21814852 1186.5713326 96.95195293 1184.35900879 C96.32146411 1183.69608387 95.69097528 1183.03315895 95.04138073 1182.3501454 C92.18582651 1179.63764534 90.47546879 1178.18861553 86.43631659 1178.2338438 C83.61063469 1178.72938556 80.93335717 1179.40360269 78.1796875 1180.203125 C76.41611407 1180.60672789 74.65071412 1181.00251773 72.8828125 1181.38671875 C72.00036865 1181.59079346 71.1179248 1181.79486816 70.20874023 1182.00512695 C8.05618618 1196.21782116 -58.3021764 1187.29456928 -112.8203125 1153.203125 C-125.96955369 1144.88082045 -138.09207298 1135.39588118 -149.8203125 1125.203125 C-150.74328125 1124.40519531 -151.66625 1123.60726563 -152.6171875 1122.78515625 C-157.09407774 1118.8441362 -161.23242731 1114.82418515 -165.0703125 1110.2578125 C-166.2636548 1108.85670078 -167.49517733 1107.48744173 -168.7578125 1106.1484375 C-181.65482024 1092.44536677 -191.9371856 1076.73088332 -200.8203125 1060.203125 C-201.18850098 1059.52185547 -201.55668945 1058.84058594 -201.93603516 1058.13867188 C-214.92442911 1033.84899917 -223.66053998 1007.41248452 -227.8203125 980.203125 C-227.93745605 979.46304199 -228.05459961 978.72295898 -228.17529297 977.96044922 C-233.03595028 945.90033361 -229.94518479 912.40987889 -221.8203125 881.203125 C-221.63774902 880.47399902 -221.45518555 879.74487305 -221.26708984 878.99365234 C-214.8918244 853.78103748 -203.14413211 828.21785588 -187.8203125 807.203125 C-187.37042969 806.58099121 -186.92054688 805.95885742 -186.45703125 805.31787109 C-180.32185474 796.86176864 -173.94670127 788.85432534 -166.8203125 781.203125 C-165.62791128 779.83237317 -164.44017367 778.45754637 -163.2578125 777.078125 C-156.42075247 769.2710473 -148.92249141 762.67345661 -140.8203125 756.203125 C-140.02882813 755.54441406 -139.23734375 754.88570312 -138.421875 754.20703125 C-127.13461557 744.88847986 -114.69169585 737.13171864 -101.8203125 730.203125 C-101.21670898 729.87602539 -100.61310547 729.54892578 -99.99121094 729.21191406 C-60.82262957 708.203125 -60.82262957 708.203125 -42.8203125 708.203125 C-43.1503125 632.963125 -43.4803125 557.723125 -43.8203125 480.203125 C-50.7503125 478.223125 -57.6803125 476.243125 -64.8203125 474.203125 C-68.35699845 473.02893585 -71.79931016 471.86590861 -75.2578125 470.515625 C-76.10649902 470.1865918 -76.95518555 469.85755859 -77.82958984 469.51855469 C-104.05695907 459.07755474 -127.82046568 444.35437527 -148.58203125 425.2578125 C-150.69070777 423.32209897 -152.83817578 421.44492524 -155.0078125 419.578125 C-161.50351128 413.88789287 -167.10099571 407.81056722 -172.5078125 401.0703125 C-173.98230022 399.24214699 -175.48020985 397.43245917 -177.0078125 395.6484375 C-217.76339217 347.76063139 -234.12235834 282.03007569 -229.359375 220.24609375 C-224.46796829 168.71398158 -203.088787 117.35783593 -167.1875 79.6875 C-165.20109187 77.60275483 -163.3461171 75.47890715 -161.5078125 73.265625 C-122.9907258 29.1940648 -58.26072497 0.33898702 0 0 Z " fill="#0073D9" transform="translate(249.8203125,14.796875)"/>
<path d="M0 0 C0.87584747 0.00215515 1.75169495 0.0043103 2.65408325 0.00653076 C70.58113498 0.27395097 130.57629728 29.25976845 178.08129883 76.83349609 C182.86911145 81.71497134 187.1667865 86.92538981 191.375 92.3125 C192.16390625 93.28445312 192.9528125 94.25640625 193.765625 95.2578125 C233.41970386 145.01245862 249.65399621 210.41227964 242.77294922 273.11376953 C237.60101704 314.68595074 221.89565722 354.99628366 196.375 388.3125 C195.72273438 389.16457031 195.07046875 390.01664062 194.3984375 390.89453125 C192.42952864 393.40225673 190.41611895 395.86315726 188.375 398.3125 C187.92898438 398.84875 187.48296875 399.385 187.0234375 399.9375 C145.26488526 449.95843958 85.44206241 480.95864551 20.57421875 486.875 C-46.91377215 492.1656558 -109.28759423 468.05998552 -160.625 425.3125 C-165.3464052 429.25614466 -169.81660067 433.36084286 -174.15544033 437.7198925 C-175.08687517 438.64959657 -175.08687517 438.64959657 -176.03712687 439.59808254 C-178.10968114 441.66799762 -180.17866004 443.74144891 -182.24766541 445.81491089 C-183.75079597 447.3176052 -185.25414634 448.82007967 -186.75769717 450.32235348 C-190.88290227 454.44532426 -195.00498563 458.57140377 -199.12656462 462.697999 C-203.5738891 467.14964302 -208.02410424 471.59839563 -212.47396851 476.04750061 C-220.18135858 483.75436641 -227.88693317 491.46304285 -235.59123039 499.17300034 C-243.67007213 507.25776227 -251.74994992 515.34148645 -259.83120918 523.42383194 C-260.33397189 523.92666338 -260.83673459 524.42949483 -261.35473253 524.94756359 C-263.90809143 527.50126083 -266.46146881 530.05493959 -269.01485331 532.60861124 C-287.09303952 550.68889698 -305.16890693 568.77149931 -323.2434082 586.85546875 C-340.80082653 604.42207375 -358.35929662 621.98762636 -375.91918945 639.55175781 C-376.46061107 640.09331095 -377.00203268 640.63486409 -377.55986101 641.19282793 C-382.99711838 646.63140384 -388.43439712 652.06995839 -393.87169151 657.50849729 C-404.94775234 668.58709423 -416.02367057 679.66583371 -427.09950256 690.74465942 C-427.60873401 691.25402816 -428.11796546 691.7633969 -428.64262817 692.28820106 C-462.63914132 726.29391243 -496.63232007 760.30295692 -530.625 794.3125 C-529.17425654 798.1114841 -527.55073026 800.96034076 -525.0625 804.1875 C-520.05590253 810.94142715 -515.80878041 818.03260957 -511.625 825.3125 C-510.96628906 826.43914063 -510.30757812 827.56578125 -509.62890625 828.7265625 C-479.58722031 882.28176117 -472.44176313 949.32474383 -488.625 1008.3125 C-498.86197727 1043.21941699 -514.77332161 1074.67623795 -538.625 1102.3125 C-539.61113281 1103.46492188 -539.61113281 1103.46492188 -540.6171875 1104.640625 C-550.94969924 1116.41578933 -562.09357723 1127.88129901 -574.625 1137.3125 C-575.24503906 1137.78719727 -575.86507813 1138.26189453 -576.50390625 1138.75097656 C-607.54255247 1162.41279083 -643.26947001 1178.12866934 -681.625 1185.3125 C-682.4715918 1185.47621094 -683.31818359 1185.63992188 -684.19042969 1185.80859375 C-710.61867652 1190.70383733 -740.26184212 1190.39145542 -766.625 1185.3125 C-767.49688965 1185.15152832 -768.3687793 1184.99055664 -769.26708984 1184.82470703 C-807.36793927 1177.60406544 -843.25722927 1161.42938654 -873.625 1137.3125 C-874.49769531 1136.631875 -875.37039063 1135.95125 -876.26953125 1135.25 C-912.95316269 1106.0319978 -940.7255137 1066.84684861 -955.625 1022.3125 C-956.04386475 1021.06243164 -956.04386475 1021.06243164 -956.47119141 1019.78710938 C-959.4663823 1010.68342144 -961.95254123 1001.51483791 -963.875 992.125 C-964.10171387 991.02369751 -964.10171387 991.02369751 -964.33300781 989.90014648 C-967.15259245 975.19916314 -968.00244386 960.62316543 -967.9375 945.6875 C-967.93567719 944.81264954 -967.93385437 943.93779907 -967.93197632 943.03643799 C-967.88382219 929.26937649 -967.26108371 915.85875298 -964.625 902.3125 C-964.45871094 901.4261084 -964.29242187 900.5397168 -964.12109375 899.62646484 C-955.45257695 854.59030949 -934.43457415 814.27248707 -903.61328125 780.5234375 C-902.0289618 778.76169917 -900.53109002 776.98161213 -899.0625 775.125 C-896.52348146 772.19536322 -893.83676124 769.77243237 -890.88671875 767.26953125 C-889.33643878 765.92809729 -887.81915748 764.54784193 -886.33203125 763.13671875 C-872.38026688 749.92039622 -856.5106456 739.38797955 -839.625 730.3125 C-838.94373047 729.94431152 -838.26246094 729.57612305 -837.56054688 729.19677734 C-781.89343815 699.4299564 -714.55167971 692.65800808 -654.0859375 710.9453125 C-644.98809621 713.82651305 -636.14629251 717.09413803 -627.59594727 721.35498047 C-625.59301804 722.35230179 -625.59301804 722.35230179 -622.625 723.3125 C-619.74984479 722.22546389 -617.77702485 720.71430207 -615.62110257 718.55699956 C-614.76691962 717.7095585 -614.76691962 717.7095585 -613.89548045 716.84499741 C-612.97029393 715.91192985 -612.97029393 715.91192985 -612.02641678 714.96001244 C-611.36164729 714.29755064 -610.6968778 713.63508884 -610.01196378 712.95255244 C-607.76989597 710.71580811 -605.5350744 708.47195929 -603.30010986 706.2281189 C-601.68428779 704.61316841 -600.06802652 702.99865725 -598.45136237 701.38454974 C-593.99787269 696.93554684 -589.55066793 692.48030686 -585.10442853 688.02405977 C-580.8053842 683.71630872 -576.50067324 679.41422399 -572.19655193 675.11154686 C-563.39053556 666.30815984 -554.5891865 657.50012051 -545.79047394 648.68943405 C-537.07672072 639.96385292 -528.36090803 631.2403375 -519.64232635 622.51958084 C-519.10053972 621.97765673 -518.55875309 621.43573262 -518.00054868 620.87738656 C-515.24915632 618.12531755 -512.49772703 615.37328548 -509.7462835 612.62126763 C-490.25019377 593.12097539 -470.75874659 573.61604876 -451.27001953 554.10839844 C-432.33519145 535.15520613 -413.39826712 516.2041123 -394.45849609 497.25585938 C-393.58302146 496.37999016 -393.58302146 496.37999016 -392.68986047 495.48642662 C-386.82868847 489.62261761 -380.96747377 483.75885129 -375.10622779 477.89511623 C-363.16584697 465.94966277 -351.22575116 454.00392446 -339.28582764 442.05801392 C-338.73683063 441.50874233 -338.18783362 440.95947074 -337.62220034 440.39355456 C-300.95169249 403.70464067 -264.28785021 367.00906589 -227.625 330.3125 C-227.96593185 329.26733971 -227.96593185 329.26733971 -228.31375122 328.20106506 C-229.36172462 324.98041962 -230.40354209 321.75781325 -231.4453125 318.53515625 C-231.98152222 316.89190369 -231.98152222 316.89190369 -232.52856445 315.2154541 C-251.85452622 255.27840774 -245.3691317 189.77154549 -217.28417969 133.63232422 C-205.80842211 111.29720701 -191.01487452 91.37250456 -173.625 73.3125 C-173.12323242 72.78881836 -172.62146484 72.26513672 -172.10449219 71.72558594 C-158.05622675 57.13526524 -141.91909819 44.54019748 -124.40185547 34.35009766 C-123.16682974 33.62890236 -121.93702062 32.8987293 -120.71142578 32.16162109 C-98.53301619 18.85028655 -73.74747473 9.95030353 -48.5 4.5625 C-47.5711499 4.36358154 -46.6422998 4.16466309 -45.68530273 3.9597168 C-30.47753361 0.88865123 -15.47731359 -0.06893634 0 0 Z " fill="#0073D9" transform="translate(1712.625,14.6875)"/>
<path d="M0 0 C0.65194336 0.31372559 1.30388672 0.62745117 1.97558594 0.95068359 C25.08372878 12.18936829 45.47231454 28.361199 64 46 C64.72574219 46.68449219 65.45148438 47.36898437 66.19921875 48.07421875 C71.62097336 53.32554492 76.29323845 59.11030015 81 65 C81.63550781 65.75667969 82.27101563 66.51335937 82.92578125 67.29296875 C122.97828947 115.47207284 140.33286812 179.6421646 135.05029297 241.50830078 C128.88432243 304.76145918 97.3829233 365.02464725 48.4375 405.8125 C46.63855701 407.22576256 44.82500077 408.62055114 43 410 C42.43458496 410.43119141 41.86916992 410.86238281 41.28662109 411.30664062 C33.38867613 417.30933065 25.36139109 422.96862128 16.77685547 427.96240234 C15.54182974 428.68359764 14.31202062 429.4137707 13.08642578 430.15087891 C0.00137057 438.00444238 -13.72045434 443.67780647 -28 449 C-28.73347656 449.27714844 -29.46695312 449.55429688 -30.22265625 449.83984375 C-84.29329005 470.04806042 -145.90514881 465.35836021 -199 445 C-199.71913574 444.72607422 -200.43827148 444.45214844 -201.17919922 444.16992188 C-238.8071345 429.54040063 -274.3800606 401.9224638 -299 370 C-299.42249023 369.4539209 -299.84498047 368.9078418 -300.28027344 368.34521484 C-307.95813783 358.35389605 -314.66373841 347.88466721 -321 337 C-321.3619043 336.38753418 -321.72380859 335.77506836 -322.09667969 335.14404297 C-352.14388111 283.86252743 -359.58764721 217.95421641 -345.16308594 160.67675781 C-341.23899151 145.9749279 -336.46418915 131.7785943 -330 118 C-329.68063477 117.31437988 -329.36126953 116.62875977 -329.03222656 115.92236328 C-318.48335467 93.51270395 -305.08854888 72.97985809 -288 55 C-286.76332207 53.58988553 -285.53355527 52.173664 -284.3125 50.75 C-245.43005372 6.14420299 -184.50060699 -20.25613523 -126.23364258 -24.80371094 C-82.20495505 -27.47634701 -39.6466886 -19.36459312 0 0 Z " fill="#0073D9" transform="translate(1821,741)"/>
<path d="M0 0 C0.86963379 0.04108887 1.73926758 0.08217773 2.63525391 0.12451172 C63.51804564 3.3159895 119.18482707 27.86089361 163 70 C163.49129395 70.46937988 163.98258789 70.93875977 164.48876953 71.42236328 C171.21613117 77.87836916 177.25486372 84.66344095 183 92 C183.80179687 92.99644531 184.60359375 93.99289062 185.4296875 95.01953125 C191.5031214 102.64102548 196.80196609 110.62284515 201.79736328 118.98681641 C202.57576101 120.28983461 203.36021487 121.58926205 204.15185547 122.88427734 C226.08206044 158.85742484 236.50564566 201.71927068 236.3125 243.625 C236.30976578 244.86624634 236.30976578 244.86624634 236.30697632 246.13256836 C236.25720058 259.61320143 235.54021874 272.73133011 233 286 C232.83902832 286.87333984 232.67805664 287.74667969 232.51220703 288.64648438 C221.77731264 345.28052856 190.43397675 398.27991814 145 434 C144.03707031 434.77988281 143.07414062 435.55976562 142.08203125 436.36328125 C90.84193236 477.08259938 25.55199465 493.3320988 -39 486 C-65.78698863 482.34383721 -92.2640176 474.79734469 -116.13964844 461.99121094 C-118.01147919 460.99388379 -119.89734819 460.02931332 -121.7890625 459.0703125 C-150.20197171 444.52460475 -176.29325469 423.07513455 -196 398 C-196.85759455 396.9542665 -197.71704411 395.91005214 -198.578125 394.8671875 C-232.95090992 352.82982344 -251.20246047 298.97579249 -251.25 244.875 C-251.25101212 243.82869919 -251.25101212 243.82869919 -251.25204468 242.76126099 C-251.15273059 177.49891143 -224.33001986 119.0387096 -180 72 C-179.31035156 71.2678125 -178.62070313 70.535625 -177.91015625 69.78125 C-172.66014868 64.37019926 -166.88314663 59.70152453 -161 55 C-160.24332031 54.36449219 -159.48664063 53.72898437 -158.70703125 53.07421875 C-115.48702414 17.14433332 -56.17772903 -2.75695315 0 0 Z " fill="#0073D9" transform="translate(271,1417)"/>
<path d="M0 0 C1.21504463 -0.01065742 1.21504463 -0.01065742 2.45463562 -0.02153015 C67.8687994 -0.46429669 129.29303541 19.74581442 177.3984375 65.26953125 C179.02847312 66.89255596 180.62865386 68.5374047 182.21484375 70.203125 C183.01921875 71.0075 183.82359375 71.811875 184.65234375 72.640625 C185.49796875 73.48625 186.34359375 74.331875 187.21484375 75.203125 C187.77558594 75.7290625 188.33632812 76.255 188.9140625 76.796875 C230.67419253 116.77817596 253.85223579 179.15837098 255.43359375 235.9765625 C256.62454507 303.07584273 231.92897782 365.77497994 185.50390625 414.10546875 C178.45563635 421.31884134 171.20354549 428.03055977 163.21484375 434.203125 C161.76271484 435.38068359 161.76271484 435.38068359 160.28125 436.58203125 C112.2981647 475.1708378 48.05764619 492.39134045 -12.85644531 486.38330078 C-57.50917583 481.31799405 -98.91112207 465.31248037 -134.78515625 438.203125 C-135.72359375 437.49671875 -136.66203125 436.7903125 -137.62890625 436.0625 C-154.80573001 422.69066885 -171.02399691 406.85501911 -183.78515625 389.203125 C-184.45490479 388.28394287 -184.45490479 388.28394287 -185.13818359 387.34619141 C-207.07563536 357.0101406 -221.87704971 323.02627816 -228.78515625 286.203125 C-228.94886719 285.36185059 -229.11257813 284.52057617 -229.28125 283.65380859 C-234.23735072 257.09668627 -234.12284532 226.68055657 -228.78515625 200.203125 C-228.58647949 199.21425293 -228.38780273 198.22538086 -228.18310547 197.20654297 C-216.63500404 141.71510425 -186.80676802 89.32371842 -141.78515625 54.203125 C-140.80160156 53.41421875 -139.81804687 52.6253125 -138.8046875 51.8125 C-103.93291705 24.06672392 -61.92602038 6.81298162 -17.78515625 1.203125 C-17.10118271 1.11579605 -16.41720917 1.0284671 -15.71250916 0.93849182 C-10.45992705 0.30937309 -5.28787926 0.03096922 0 0 Z " fill="#0073D9" transform="translate(976.78515625,14.796875)"/>
</svg>
